<?xml version="1.0" encoding="utf-8"?>
<!-- Generator: Adobe Illustrator 25.2.3, SVG Export Plug-In . SVG Version: 6.00 Build 0)  -->
<svg version="1.1" id="Layer_1" xmlns="http://www.w3.org/2000/svg" xmlns:xlink="http://www.w3.org/1999/xlink" x="0px" y="0px"
	 viewBox="0 0 300 300" style="enable-background:new 0 0 300 300;" xml:space="preserve">
<path d="M6.4,15.5C2.9,15.5,0,12.7,0,9.2s2.8-6.4,6.4-6.4h42.2C59.3,2.8,69,7,76.2,13.9c5.1,4.9,9,11.2,10.9,18.4h173
	c6.2,0,12,1.3,17.2,3.8c5.2,2.5,9.9,6.2,13.8,11l0.3,0.4c3.7,4.7,6.3,9.9,7.6,15.4c1.4,5.7,1.4,11.6,0.1,17.6l-17.6,82.3
	c-2,9.3-7,17.2-13.9,22.7l0,0c-6.9,5.6-15.6,8.8-25.1,8.8H96.8c1.4,3.4,3.6,6.5,6.2,9c4.9,4.7,11.5,7.5,18.8,7.5h133.7
	c3.5,0,6.4,2.8,6.4,6.4c0,3.5-2.8,6.4-6.4,6.4H121.8c-10.7,0-20.4-4.2-27.6-11.1c-6.3-6-10.6-14.1-11.9-23.2
	c-0.1-0.4-0.1-0.7-0.1-1.1c-0.1-0.9-0.2-1.9-0.2-2.8L75.7,41.5c0-0.6-0.1-1.1-0.1-1.6c-0.1-0.3-0.1-0.6-0.1-0.9
	c-0.9-6.2-3.8-11.8-8.1-15.9c-4.9-4.7-11.5-7.5-18.8-7.5L6.4,15.5L6.4,15.5z M230.8,236.9c8.3,0,15.9,3.4,21.3,8.8
	c5.5,5.5,8.8,13,8.8,21.3c0,8.3-3.4,15.9-8.8,21.3c-5.5,5.5-13,8.8-21.3,8.8c-8.3,0-15.9-3.4-21.3-8.8c-5.5-5.5-8.8-13-8.8-21.3
	c0-8.3,3.4-15.9,8.8-21.3C214.9,240.3,222.5,236.9,230.8,236.9z M243.1,254.7c-3.1-3.1-7.5-5.1-12.3-5.1c-4.8,0-9.2,1.9-12.3,5.1
	c-3.1,3.1-5.1,7.5-5.1,12.3c0,4.8,1.9,9.2,5.1,12.3c3.1,3.1,7.5,5.1,12.3,5.1c4.8,0,9.2-1.9,12.3-5.1c3.1-3.1,5.1-7.5,5.1-12.3
	C248.2,262.2,246.3,257.9,243.1,254.7L243.1,254.7z M125.7,236.9c8.3,0,15.9,3.4,21.3,8.8c5.5,5.5,8.8,13,8.8,21.3
	c0,8.3-3.4,15.9-8.8,21.3c-5.5,5.5-13,8.8-21.3,8.8c-8.3,0-15.9-3.4-21.3-8.8c-5.5-5.5-8.8-13-8.8-21.3c0-8.3,3.4-15.9,8.8-21.3
	C109.8,240.3,117.4,236.9,125.7,236.9z M138,254.7c-3.1-3.1-7.5-5.1-12.3-5.1c-4.8,0-9.2,1.9-12.3,5.1c-3.1,3.1-5.1,7.5-5.1,12.3
	c0,4.8,1.9,9.2,5.1,12.3c3.1,3.1,7.5,5.1,12.3,5.1s9.2-1.9,12.3-5.1c3.1-3.1,5.1-7.5,5.1-12.3C143.1,262.2,141.2,257.9,138,254.7z
	 M88.6,45l5.9,136.5h148c6.5,0,12.4-2.2,17.1-6l0,0l0,0c4.7-3.8,8-9.1,9.4-15.5l17.6-82.3c0.9-4.2,0.9-8.2,0-12
	c-0.9-3.7-2.6-7.2-5.2-10.4l-0.3-0.3c-2.7-3.3-5.8-5.8-9.4-7.5c-3.5-1.7-7.5-2.5-11.7-2.5L88.6,45L88.6,45z"/>
</svg>
