<?xml version="1.0" encoding="utf-8"?>
<!-- Generator: Adobe Illustrator 25.2.3, SVG Export Plug-In . SVG Version: 6.00 Build 0)  -->
<svg version="1.1" id="Layer_1" xmlns="http://www.w3.org/2000/svg" xmlns:xlink="http://www.w3.org/1999/xlink" x="0px" y="0px"
	 viewBox="0 0 300 300" style="enable-background:new 0 0 300 300;" xml:space="preserve">
<style type="text/css">
	.st0{display:none;}
	.st1{display:inline;}
</style>
<path class="st0" d="M6.4,15.5C2.9,15.5,0,12.7,0,9.2s2.8-6.4,6.4-6.4h42.2C59.3,2.8,69,7,76.2,13.9c5.1,4.9,9,11.2,10.9,18.4h173
	c6.2,0,12,1.3,17.2,3.8c5.2,2.5,9.9,6.2,13.8,11l0.3,0.4c3.7,4.7,6.3,9.9,7.6,15.4c1.4,5.7,1.4,11.6,0.1,17.6l-17.6,82.3
	c-2,9.3-7,17.2-13.9,22.7l0,0c-6.9,5.6-15.6,8.8-25.1,8.8H96.8c1.4,3.4,3.6,6.5,6.2,9c4.9,4.7,11.5,7.5,18.8,7.5h133.7
	c3.5,0,6.4,2.8,6.4,6.4c0,3.5-2.8,6.4-6.4,6.4H121.8c-10.7,0-20.4-4.2-27.6-11.1c-6.3-6-10.6-14.1-11.9-23.2
	c-0.1-0.4-0.1-0.7-0.1-1.1c-0.1-0.9-0.2-1.9-0.2-2.8L75.7,41.5c0-0.6-0.1-1.1-0.1-1.6c-0.1-0.3-0.1-0.6-0.1-0.9
	c-0.9-6.2-3.8-11.8-8.1-15.9c-4.9-4.7-11.5-7.5-18.8-7.5L6.4,15.5L6.4,15.5z M230.8,236.9c8.3,0,15.9,3.4,21.3,8.8
	c5.5,5.5,8.8,13,8.8,21.3c0,8.3-3.4,15.9-8.8,21.3c-5.5,5.5-13,8.8-21.3,8.8c-8.3,0-15.9-3.4-21.3-8.8c-5.5-5.5-8.8-13-8.8-21.3
	c0-8.3,3.4-15.9,8.8-21.3C214.9,240.3,222.5,236.9,230.8,236.9z M243.1,254.7c-3.1-3.1-7.5-5.1-12.3-5.1c-4.8,0-9.2,1.9-12.3,5.1
	c-3.1,3.1-5.1,7.5-5.1,12.3c0,4.8,1.9,9.2,5.1,12.3c3.1,3.1,7.5,5.1,12.3,5.1c4.8,0,9.2-1.9,12.3-5.1c3.1-3.1,5.1-7.5,5.1-12.3
	C248.2,262.2,246.3,257.9,243.1,254.7L243.1,254.7z M125.7,236.9c8.3,0,15.9,3.4,21.3,8.8c5.5,5.5,8.8,13,8.8,21.3
	c0,8.3-3.4,15.9-8.8,21.3c-5.5,5.5-13,8.8-21.3,8.8c-8.3,0-15.9-3.4-21.3-8.8c-5.5-5.5-8.8-13-8.8-21.3c0-8.3,3.4-15.9,8.8-21.3
	C109.8,240.3,117.4,236.9,125.7,236.9z M138,254.7c-3.1-3.1-7.5-5.1-12.3-5.1c-4.8,0-9.2,1.9-12.3,5.1c-3.1,3.1-5.1,7.5-5.1,12.3
	c0,4.8,1.9,9.2,5.1,12.3c3.1,3.1,7.5,5.1,12.3,5.1s9.2-1.9,12.3-5.1c3.1-3.1,5.1-7.5,5.1-12.3C143.1,262.2,141.2,257.9,138,254.7z
	 M88.6,45l5.9,136.5h148c6.5,0,12.4-2.2,17.1-6l0,0l0,0c4.7-3.8,8-9.1,9.4-15.5l17.6-82.3c0.9-4.2,0.9-8.2,0-12
	c-0.9-3.7-2.6-7.2-5.2-10.4l-0.3-0.3c-2.7-3.3-5.8-5.8-9.4-7.5c-3.5-1.7-7.5-2.5-11.7-2.5L88.6,45L88.6,45z"/>
<g class="st0">
	<path class="st1" d="M727.7,151.6c12.6,0,23.6,5.1,31.8,13.2c8.4,8.4,13.8,20.1,15,33l8,87.8c0.3,3.4-2.2,6.4-5.5,6.7
		c-0.2,0-0.4,0-0.5,0v0H565.4c-3.4,0-6.2-2.8-6.2-6.1c0-0.4,0-0.7,0.1-1.1l7.9-87.2c1.2-12.9,6.6-24.6,15-33
		c8.2-8.2,19.1-13.2,31.8-13.2L727.7,151.6L727.7,151.6z M670.9-7.7c18.8,0,35.7,7.6,48,19.9c12.3,12.3,19.9,29.3,19.9,48
		c0,37.5-30.4,67.9-67.9,67.9c-18.8,0-35.7-7.6-48-19.9c-12.3-12.3-19.9-29.3-19.9-48s7.6-35.7,19.9-48
		C635.1-0.1,652.1-7.6,670.9-7.7L670.9-7.7z M710.2,20.9c-10.1-10.1-24-16.3-39.3-16.3c-15.4,0-29.3,6.2-39.3,16.3
		c-10.1,10.1-16.3,24-16.3,39.3s6.2,29.3,16.3,39.3c10.1,10.1,24,16.3,39.3,16.3c30.7,0,55.6-24.9,55.6-55.6
		C726.5,44.9,720.3,31,710.2,20.9L710.2,20.9z M750.8,173.6c-5.9-5.9-13.9-9.6-23.1-9.6H614c-9.2,0-17.1,3.7-23.1,9.6
		c-6.4,6.4-10.6,15.5-11.5,25.4l-7.3,81.1h197.5l-7.3-81.1C761.4,189,757.3,180,750.8,173.6L750.8,173.6z"/>
</g>
<path class="st0" d="M150,271.6l116.2-116.2c13.7-13.7,21.2-32.1,21.9-51.1c0.7-18.6-5.2-37.8-18.1-53.7c-0.9-1.2-1.8-2.2-2.7-3.1
	c-12.9-13.7-31.6-21-51.3-21.5c-19.9-0.5-40.7,5.8-57.4,19.5c-1.6,1.3-3,2.6-4.4,3.8c-2.3,2.2-5.9,2.1-8.2,0
	c-1.3-1.3-2.8-2.5-4.4-3.8C124.8,31.8,104,25.4,84.1,26c-19.7,0.5-38.5,7.8-51.3,21.5c-0.9,0.9-1.8,2-2.7,3.1
	c-13,15.8-18.8,35-18.1,53.7c0.7,19,8.2,37.4,21.9,51.1L150,271.6L150,271.6z M274.7,163.8L154.2,284.2c-2.3,2.3-6.1,2.3-8.4,0
	L25.3,163.8C9.5,147.9,0.8,126.6,0,104.7C-0.8,83.2,5.9,61.2,20.8,43c1-1.2,2.1-2.4,3.3-3.7C39.2,23.2,61,14.7,83.8,14.1
	c22.6-0.6,46.3,6.6,65.3,22.2L150,37l0.9-0.7c19-15.5,42.7-22.8,65.3-22.2c22.8,0.6,44.6,9.2,59.7,25.2c1.2,1.3,2.3,2.5,3.3,3.7
	c14.9,18.2,21.6,40.2,20.8,61.6C299.2,126.6,290.5,147.9,274.7,163.8L274.7,163.8z"/>
<path class="st0" d="M73.2,76c0,4.3-3.5,7.8-7.8,7.8c-4.3,0-7.8-3.5-7.8-7.8V47.5c0-13.1,5.3-24.9,13.9-33.5C80.1,5.3,92,0,105,0
	h117.5c13.1,0,24.9,5.3,33.5,13.9c8.6,8.6,13.9,20.5,13.9,33.5v205.1c0,13.1-5.3,24.9-13.9,33.5c-8.6,8.6-20.5,13.9-33.5,13.9H105
	c-13.1,0-24.9-5.3-33.5-13.9c-8.6-8.6-13.9-20.5-13.9-33.5V224c0-4.3,3.5-7.8,7.8-7.8c4.3,0,7.8,3.5,7.8,7.8v28.6
	c0,8.7,3.6,16.7,9.3,22.4c5.8,5.8,13.7,9.3,22.4,9.3h117.5c8.7,0,16.7-3.6,22.4-9.3c5.8-5.8,9.3-13.7,9.3-22.4V47.5
	c0-8.7-3.6-16.7-9.3-22.4c-5.8-5.8-13.7-9.3-22.4-9.3H105c-8.7,0-16.7,3.6-22.4,9.3c-5.8,5.8-9.3,13.7-9.3,22.4V76z M30,150v-28
	c0-4.3,3.5-7.8,7.8-7.8h73V87.3c0-4.3,3.5-7.8,7.8-7.8c2.1,0,4,0.8,5.4,2.2l76.9,62.4c3.3,2.7,3.9,7.7,1.1,11
	c-0.4,0.5-0.8,0.9-1.3,1.2l-77.2,62.6c-3.4,2.7-8.3,2.2-11-1.1c-1.2-1.4-1.8-3.2-1.8-4.9h0v-26.9h-73c-4.3,0-7.8-3.5-7.8-7.8L30,150
	L30,150z M45.7,129.9v40.3h73c4.3,0,7.8,3.5,7.8,7.8v18.3l57.1-46.3l-57.1-46.3V122c0,4.3-3.5,7.8-7.8,7.8L45.7,129.9L45.7,129.9z"
	/>
<path d="M289.1,163.7l-60.6-54.6H71l-60.6,54.6l-8.3-9.3l64.2-57.8h167l64.2,57.8L289.1,163.7z"/>
<path d="M280.8,262H18.7C8.4,262,0,253.6,0,243.3v-90.5h99.8v6.2c0,15.5,12.6,28.1,28.1,28.1h43.7c15.5,0,28.1-12.6,28.1-28.1v-6.2
	h99.8v90.5C299.5,253.6,291.1,262,280.8,262L280.8,262z M12.5,165.3v78c0,3.4,2.8,6.2,6.2,6.2h262.1c3.4,0,6.2-2.8,6.2-6.2v-78
	h-75.4c-3,19.4-19.8,34.3-40.1,34.3h-43.7c-20.2,0-37.1-14.9-40.1-34.3L12.5,165.3z"/>
<path d="M89.5,12.2l21.8,34.3l-10.5,6.7L79,18.9L89.5,12.2z"/>
<path d="M213.1,12.1l10.5,6.7l-21.8,34.3l-10.5-6.7L213.1,12.1z"/>
<path d="M143.5,6.1H156v40.6h-12.5V6.1z"/>
</svg>
